<svg xmlns="http://www.w3.org/2000/svg" xmlns:xlink="http://www.w3.org/1999/xlink" width="200" zoomAndPan="magnify" viewBox="0 0 150 37.5" height="50" preserveAspectRatio="xMidYMid meet" version="1.0"><defs><clipPath id="dcaf12411c"><path d="M 45.425781 15.652344 L 65.183594 15.652344 L 65.183594 21.570312 L 45.425781 21.570312 Z M 45.425781 15.652344 " clip-rule="nonzero"/></clipPath><clipPath id="43abe8518b"><path d="M 65.0625 15.652344 L 84.9375 15.652344 L 84.9375 21.570312 L 65.0625 21.570312 Z M 65.0625 15.652344 " clip-rule="nonzero"/></clipPath><clipPath id="30bd8f02f6"><path d="M 84.816406 15.652344 L 104.574219 15.652344 L 104.574219 21.570312 L 84.816406 21.570312 Z M 84.816406 15.652344 " clip-rule="nonzero"/></clipPath></defs><g clip-path="url(#dcaf12411c)"><path fill="#dac798" d="M 59.722656 21.035156 C 59.097656 21.015625 58.453125 20.875 57.960938 20.46875 C 58.070312 20.300781 58.148438 20.203125 58.105469 20.070312 C 58.039062 19.855469 57.800781 19.765625 57.53125 20 C 57.242188 19.59375 57.0625 19.074219 57.027344 18.519531 C 56.9375 17.070312 58.324219 15.929688 59.609375 16.351562 C 60.1875 16.539062 60.644531 17.101562 60.757812 17.742188 C 60.867188 18.367188 60.539062 19.296875 59.851562 19.335938 C 59.796875 19.339844 59.726562 19.316406 59.722656 19.257812 C 59.71875 19.167969 60.054688 18.847656 59.929688 18.554688 C 59.8125 18.277344 59.480469 18.347656 59.066406 17.992188 C 58.777344 17.742188 58.792969 17.546875 58.925781 17.210938 C 58.542969 17.476562 58.304688 17.96875 58.320312 18.460938 C 58.367188 19.863281 60.199219 20.523438 60.972656 18.828125 C 61.039062 18.683594 61.328125 17.96875 61.210938 17.835938 C 62.0625 18.816406 63.132812 18.859375 63.75 18.300781 C 64.21875 17.878906 64.363281 17.167969 64.386719 16.507812 C 64.25 16.738281 64.214844 17.035156 64.046875 17.242188 C 63.835938 17.5 63.5 17.511719 63.242188 17.34375 C 63.074219 17.234375 62.835938 17.011719 62.632812 17.164062 C 62.421875 17.324219 62.371094 17.972656 62.769531 18.308594 C 62.371094 18.371094 61.96875 18.167969 61.675781 17.871094 C 61.367188 17.554688 61.1875 17.113281 60.921875 16.757812 C 60.671875 16.421875 60.363281 16.136719 60.007812 15.960938 C 59.492188 15.707031 58.800781 15.671875 58.257812 15.824219 C 57.300781 16.089844 56.78125 17.046875 56.660156 18.050781 C 56.582031 18.699219 56.777344 19.261719 56.992188 19.851562 C 57.003906 19.882812 57.015625 19.914062 57.027344 19.941406 C 56.933594 19.824219 56.847656 19.703125 56.761719 19.582031 C 56.621094 19.429688 56.550781 19.171875 56.488281 18.976562 C 56.3125 18.464844 56.371094 18.136719 56.21875 17.925781 C 56.078125 17.738281 55.734375 17.652344 55.457031 17.4375 C 55.425781 17.414062 55.355469 17.34375 55.363281 17.4375 C 55.382812 17.667969 55.414062 17.910156 55.445312 18.140625 C 55.46875 18.328125 55.503906 18.535156 55.617188 18.683594 C 55.882812 19.019531 56.230469 19.078125 56.652344 19.792969 C 56.714844 19.898438 56.785156 19.992188 56.859375 20.085938 C 56.363281 19.78125 55.929688 19.367188 55.507812 18.953125 C 54.953125 18.40625 54.304688 17.949219 53.714844 17.445312 C 53.097656 16.921875 52.4375 16.460938 51.707031 16.136719 C 51.363281 15.984375 50.976562 15.800781 50.613281 15.730469 C 49.527344 15.515625 48.359375 15.773438 47.605469 16.199219 C 47.46875 16.074219 47.316406 15.882812 47.125 15.90625 C 47.074219 15.910156 47.042969 15.929688 47.011719 15.972656 C 46.878906 16.136719 46.949219 16.355469 47.070312 16.546875 C 46.511719 16.9375 46.128906 17.230469 45.425781 17.761719 L 45.425781 18.402344 C 45.894531 17.996094 46.339844 17.613281 46.855469 17.273438 C 47.03125 17.15625 47.1875 17.007812 47.375 16.914062 C 46.835938 17.453125 46.382812 18.109375 45.800781 18.605469 C 45.75 18.648438 45.699219 18.691406 45.664062 18.75 C 45.5625 18.9375 45.617188 19.65625 45.621094 20.019531 C 45.625 20.054688 45.792969 19.945312 45.800781 19.9375 C 45.984375 19.808594 46.40625 19.636719 46.546875 19.386719 C 46.65625 19.1875 46.597656 18.953125 46.621094 18.738281 C 46.6875 18.085938 47.035156 17.46875 47.46875 17 C 47.484375 17.011719 47.496094 17.023438 47.511719 17.035156 C 47.421875 17.234375 47.316406 17.425781 47.222656 17.625 C 46.675781 18.769531 46.9375 20.039062 47.910156 20.800781 C 48.078125 20.933594 48.261719 21.066406 48.46875 21.125 C 48.710938 21.191406 48.957031 21.238281 49.203125 21.261719 C 49.554688 21.296875 49.695312 21.257812 50.003906 21.109375 C 50.292969 20.976562 50.578125 20.835938 50.828125 20.625 C 51.867188 19.742188 52.066406 19.550781 52.390625 19.398438 C 52.65625 19.277344 52.960938 19.226562 53.230469 19.332031 C 53.128906 19.449219 52.996094 19.535156 52.902344 19.660156 C 52.648438 20.003906 52.988281 20.46875 53.382812 20.375 C 53.554688 20.332031 53.691406 20.191406 53.855469 20.128906 C 54.035156 20.066406 54.230469 20.09375 54.402344 20.171875 C 54.574219 20.25 54.726562 20.371094 54.875 20.496094 C 54.769531 19.917969 54.464844 19.398438 53.96875 19.117188 C 53.636719 18.925781 53.167969 18.804688 52.789062 18.863281 C 52.332031 18.929688 51.957031 19.261719 51.609375 19.5625 C 51.476562 19.679688 51.339844 19.796875 51.238281 19.945312 C 51.308594 19.8125 51.378906 19.671875 51.421875 19.527344 C 51.550781 19.078125 51.433594 18.550781 51.199219 18.167969 C 50.839844 17.582031 50.109375 17.203125 49.46875 17.414062 C 48.953125 17.582031 48.53125 18.082031 48.578125 18.6875 C 48.601562 19 48.71875 19.292969 48.835938 19.582031 C 48.882812 19.515625 48.886719 19.429688 48.902344 19.347656 C 48.9375 19.140625 49.082031 18.96875 49.257812 18.882812 C 49.480469 18.777344 49.714844 18.902344 49.945312 18.8125 C 50.09375 18.753906 50.222656 18.597656 50.199219 18.417969 C 50.179688 18.300781 50.101562 18.199219 50 18.152344 C 49.949219 18.128906 49.894531 18.117188 49.847656 18.085938 C 49.730469 18.007812 49.742188 17.851562 49.941406 17.839844 C 50.796875 17.796875 51.433594 18.992188 50.96875 19.761719 C 50.894531 19.878906 50.804688 19.980469 50.710938 20.078125 C 50.332031 20.476562 49.941406 20.761719 49.40625 20.800781 C 49.015625 20.828125 48.519531 20.765625 48.1875 20.527344 C 47.859375 20.296875 47.609375 19.945312 47.46875 19.550781 C 47.351562 19.226562 47.257812 18.808594 47.304688 18.464844 C 47.367188 17.984375 47.53125 17.589844 47.769531 17.273438 C 47.820312 17.332031 47.867188 17.390625 47.933594 17.425781 C 48.082031 17.496094 48.351562 17.40625 48.320312 17.210938 C 48.300781 17.082031 48.246094 16.964844 48.179688 16.851562 C 48.929688 16.265625 50.015625 16.15625 50.957031 16.4375 C 51.6875 16.65625 52.3125 17.109375 52.933594 17.5625 C 55.214844 19.222656 55.359375 19.78125 56.847656 20.691406 C 56.796875 20.777344 56.769531 20.867188 56.789062 20.957031 C 56.878906 21.40625 57.164062 21.351562 57.492188 21.050781 C 59.839844 22.183594 61.433594 21.339844 63.527344 19.714844 C 63.910156 19.417969 64.296875 19.128906 64.667969 18.8125 C 64.839844 18.667969 64.996094 18.53125 65.144531 18.40625 L 65.144531 17.761719 C 63.058594 19.347656 60.910156 21.074219 59.722656 21.035156 " fill-opacity="1" fill-rule="nonzero"/></g><g clip-path="url(#43abe8518b)"><path fill="#dac798" d="M 79.4375 21.035156 C 78.8125 21.015625 78.167969 20.875 77.675781 20.46875 C 77.785156 20.300781 77.863281 20.203125 77.820312 20.070312 C 77.753906 19.855469 77.515625 19.765625 77.246094 20 C 76.960938 19.59375 76.777344 19.074219 76.742188 18.519531 C 76.652344 17.070312 78.039062 15.929688 79.324219 16.351562 C 79.902344 16.539062 80.359375 17.101562 80.472656 17.742188 C 80.582031 18.367188 80.253906 19.296875 79.566406 19.335938 C 79.511719 19.339844 79.441406 19.316406 79.4375 19.257812 C 79.433594 19.167969 79.769531 18.847656 79.644531 18.554688 C 79.527344 18.277344 79.195312 18.347656 78.777344 17.992188 C 78.492188 17.742188 78.507812 17.546875 78.640625 17.210938 C 78.257812 17.476562 78.019531 17.96875 78.035156 18.460938 C 78.082031 19.863281 79.914062 20.523438 80.6875 18.828125 C 80.753906 18.683594 81.042969 17.96875 80.925781 17.835938 C 81.777344 18.816406 82.847656 18.859375 83.464844 18.300781 C 83.933594 17.878906 84.078125 17.167969 84.101562 16.507812 C 83.964844 16.738281 83.929688 17.035156 83.761719 17.242188 C 83.554688 17.5 83.214844 17.511719 82.957031 17.34375 C 82.789062 17.234375 82.550781 17.011719 82.347656 17.164062 C 82.136719 17.324219 82.085938 17.972656 82.484375 18.308594 C 82.085938 18.371094 81.683594 18.167969 81.390625 17.871094 C 81.082031 17.554688 80.902344 17.113281 80.636719 16.757812 C 80.386719 16.421875 80.078125 16.136719 79.722656 15.960938 C 79.207031 15.707031 78.515625 15.671875 77.972656 15.824219 C 77.015625 16.089844 76.496094 17.046875 76.375 18.050781 C 76.296875 18.699219 76.492188 19.261719 76.707031 19.851562 C 76.71875 19.882812 76.730469 19.914062 76.742188 19.941406 C 76.652344 19.824219 76.5625 19.703125 76.476562 19.582031 C 76.335938 19.429688 76.265625 19.171875 76.203125 18.976562 C 76.03125 18.464844 76.085938 18.136719 75.933594 17.925781 C 75.792969 17.738281 75.449219 17.652344 75.171875 17.4375 C 75.140625 17.414062 75.074219 17.34375 75.082031 17.4375 C 75.101562 17.667969 75.128906 17.910156 75.160156 18.140625 C 75.183594 18.328125 75.21875 18.535156 75.332031 18.683594 C 75.597656 19.019531 75.945312 19.078125 76.367188 19.792969 C 76.429688 19.898438 76.5 19.992188 76.574219 20.085938 C 76.078125 19.78125 75.644531 19.367188 75.222656 18.953125 C 74.667969 18.40625 74.019531 17.949219 73.429688 17.445312 C 72.8125 16.921875 72.152344 16.460938 71.421875 16.136719 C 71.078125 15.984375 70.691406 15.800781 70.328125 15.730469 C 69.242188 15.515625 68.074219 15.773438 67.320312 16.199219 C 67.183594 16.074219 67.03125 15.882812 66.839844 15.90625 C 66.789062 15.910156 66.757812 15.929688 66.726562 15.972656 C 66.59375 16.136719 66.664062 16.355469 66.785156 16.546875 C 66.226562 16.9375 65.84375 17.230469 65.144531 17.761719 L 65.144531 18.402344 C 65.609375 17.996094 66.054688 17.613281 66.570312 17.273438 C 66.746094 17.15625 66.902344 17.007812 67.089844 16.914062 C 66.550781 17.453125 66.097656 18.109375 65.515625 18.605469 C 65.464844 18.648438 65.414062 18.691406 65.378906 18.75 C 65.277344 18.9375 65.332031 19.65625 65.339844 20.019531 C 65.339844 20.054688 65.507812 19.945312 65.515625 19.9375 C 65.699219 19.808594 66.121094 19.636719 66.261719 19.386719 C 66.371094 19.1875 66.3125 18.953125 66.335938 18.738281 C 66.402344 18.085938 66.75 17.46875 67.183594 17 C 67.199219 17.011719 67.210938 17.023438 67.226562 17.035156 C 67.136719 17.234375 67.027344 17.425781 66.933594 17.625 C 66.390625 18.769531 66.652344 20.039062 67.625 20.800781 C 67.792969 20.933594 67.976562 21.066406 68.183594 21.125 C 68.421875 21.191406 68.671875 21.238281 68.921875 21.261719 C 69.269531 21.296875 69.410156 21.257812 69.71875 21.109375 C 70.007812 20.976562 70.292969 20.835938 70.542969 20.625 C 71.582031 19.742188 71.78125 19.550781 72.105469 19.398438 C 72.371094 19.277344 72.675781 19.226562 72.945312 19.332031 C 72.84375 19.449219 72.710938 19.535156 72.617188 19.660156 C 72.363281 20.003906 72.703125 20.46875 73.097656 20.375 C 73.269531 20.332031 73.40625 20.191406 73.570312 20.128906 C 73.75 20.066406 73.945312 20.09375 74.117188 20.171875 C 74.292969 20.25 74.441406 20.371094 74.585938 20.496094 C 74.484375 19.917969 74.179688 19.398438 73.6875 19.117188 C 73.351562 18.925781 72.882812 18.804688 72.503906 18.863281 C 72.046875 18.929688 71.671875 19.261719 71.324219 19.5625 C 71.191406 19.679688 71.054688 19.796875 70.953125 19.945312 C 71.023438 19.8125 71.09375 19.671875 71.136719 19.527344 C 71.265625 19.078125 71.148438 18.550781 70.914062 18.167969 C 70.554688 17.582031 69.828125 17.203125 69.1875 17.414062 C 68.667969 17.582031 68.246094 18.082031 68.292969 18.6875 C 68.316406 19 68.4375 19.292969 68.550781 19.582031 C 68.597656 19.515625 68.601562 19.429688 68.617188 19.347656 C 68.652344 19.140625 68.796875 18.96875 68.972656 18.882812 C 69.195312 18.777344 69.429688 18.902344 69.660156 18.8125 C 69.808594 18.753906 69.9375 18.597656 69.914062 18.417969 C 69.894531 18.300781 69.816406 18.199219 69.714844 18.152344 C 69.664062 18.128906 69.609375 18.117188 69.5625 18.085938 C 69.445312 18.007812 69.457031 17.851562 69.65625 17.839844 C 70.511719 17.796875 71.148438 18.992188 70.683594 19.761719 C 70.609375 19.878906 70.519531 19.980469 70.425781 20.078125 C 70.046875 20.476562 69.660156 20.761719 69.121094 20.800781 C 68.730469 20.828125 68.234375 20.765625 67.902344 20.527344 C 67.574219 20.296875 67.324219 19.945312 67.183594 19.550781 C 67.0625 19.226562 66.972656 18.808594 67.019531 18.464844 C 67.082031 17.984375 67.246094 17.589844 67.484375 17.273438 C 67.535156 17.332031 67.582031 17.390625 67.648438 17.425781 C 67.796875 17.496094 68.066406 17.40625 68.035156 17.210938 C 68.015625 17.082031 67.960938 16.964844 67.894531 16.851562 C 68.644531 16.265625 69.730469 16.15625 70.671875 16.4375 C 71.402344 16.65625 72.027344 17.109375 72.648438 17.5625 C 74.929688 19.222656 75.074219 19.78125 76.5625 20.691406 C 76.511719 20.777344 76.484375 20.867188 76.503906 20.957031 C 76.59375 21.40625 76.878906 21.351562 77.210938 21.050781 C 79.554688 22.183594 81.144531 21.339844 83.242188 19.714844 C 83.625 19.417969 84.011719 19.128906 84.382812 18.8125 C 84.554688 18.667969 84.710938 18.53125 84.855469 18.40625 L 84.855469 17.761719 C 82.773438 19.347656 80.621094 21.074219 79.4375 21.035156 " fill-opacity="1" fill-rule="nonzero"/></g><g clip-path="url(#30bd8f02f6)"><path fill="#dac798" d="M 99.152344 21.035156 C 98.53125 21.015625 97.882812 20.875 97.390625 20.46875 C 97.5 20.300781 97.578125 20.203125 97.535156 20.070312 C 97.46875 19.855469 97.230469 19.765625 96.960938 20 C 96.675781 19.59375 96.496094 19.074219 96.460938 18.519531 C 96.367188 17.070312 97.753906 15.929688 99.039062 16.351562 C 99.617188 16.539062 100.074219 17.101562 100.1875 17.742188 C 100.296875 18.367188 99.96875 19.296875 99.285156 19.335938 C 99.226562 19.339844 99.15625 19.316406 99.152344 19.257812 C 99.148438 19.167969 99.484375 18.847656 99.359375 18.554688 C 99.242188 18.277344 98.910156 18.347656 98.496094 17.992188 C 98.207031 17.742188 98.222656 17.546875 98.355469 17.210938 C 97.972656 17.476562 97.734375 17.96875 97.75 18.460938 C 97.796875 19.863281 99.628906 20.523438 100.402344 18.828125 C 100.46875 18.683594 100.757812 17.96875 100.640625 17.835938 C 101.492188 18.816406 102.5625 18.859375 103.179688 18.300781 C 103.648438 17.878906 103.792969 17.167969 103.816406 16.507812 C 103.679688 16.738281 103.644531 17.035156 103.476562 17.242188 C 103.269531 17.5 102.929688 17.511719 102.671875 17.34375 C 102.503906 17.234375 102.265625 17.011719 102.0625 17.164062 C 101.851562 17.324219 101.800781 17.972656 102.199219 18.308594 C 101.800781 18.371094 101.398438 18.167969 101.105469 17.871094 C 100.796875 17.554688 100.617188 17.113281 100.351562 16.757812 C 100.101562 16.421875 99.792969 16.136719 99.4375 15.960938 C 98.921875 15.707031 98.230469 15.671875 97.6875 15.824219 C 96.730469 16.089844 96.210938 17.046875 96.089844 18.050781 C 96.011719 18.699219 96.207031 19.261719 96.425781 19.851562 C 96.433594 19.882812 96.445312 19.914062 96.457031 19.941406 C 96.367188 19.824219 96.277344 19.703125 96.191406 19.582031 C 96.050781 19.429688 95.980469 19.171875 95.917969 18.976562 C 95.746094 18.464844 95.800781 18.136719 95.648438 17.925781 C 95.507812 17.738281 95.164062 17.652344 94.886719 17.4375 C 94.855469 17.414062 94.789062 17.34375 94.796875 17.4375 C 94.816406 17.667969 94.84375 17.910156 94.875 18.140625 C 94.898438 18.328125 94.933594 18.535156 95.046875 18.683594 C 95.3125 19.019531 95.660156 19.078125 96.082031 19.792969 C 96.144531 19.898438 96.214844 19.992188 96.289062 20.085938 C 95.792969 19.78125 95.359375 19.367188 94.9375 18.953125 C 94.382812 18.40625 93.734375 17.949219 93.144531 17.445312 C 92.53125 16.921875 91.867188 16.460938 91.136719 16.136719 C 90.792969 15.984375 90.410156 15.800781 90.042969 15.730469 C 88.957031 15.515625 87.789062 15.773438 87.035156 16.199219 C 86.898438 16.074219 86.746094 15.882812 86.554688 15.90625 C 86.503906 15.910156 86.476562 15.929688 86.441406 15.972656 C 86.308594 16.136719 86.378906 16.355469 86.5 16.546875 C 85.941406 16.9375 85.558594 17.230469 84.855469 17.761719 L 84.855469 18.402344 C 85.328125 17.996094 85.769531 17.613281 86.285156 17.273438 C 86.460938 17.15625 86.617188 17.007812 86.804688 16.914062 C 86.265625 17.453125 85.8125 18.109375 85.230469 18.605469 C 85.179688 18.648438 85.128906 18.691406 85.097656 18.75 C 84.992188 18.9375 85.046875 19.65625 85.054688 20.019531 C 85.054688 20.054688 85.222656 19.945312 85.234375 19.9375 C 85.414062 19.808594 85.835938 19.636719 85.976562 19.386719 C 86.085938 19.1875 86.027344 18.953125 86.050781 18.738281 C 86.117188 18.085938 86.464844 17.46875 86.898438 17 C 86.914062 17.011719 86.925781 17.023438 86.941406 17.035156 C 86.851562 17.234375 86.746094 17.425781 86.652344 17.625 C 86.105469 18.769531 86.367188 20.039062 87.339844 20.800781 C 87.507812 20.933594 87.691406 21.066406 87.898438 21.125 C 88.140625 21.191406 88.386719 21.238281 88.636719 21.261719 C 88.984375 21.296875 89.125 21.257812 89.433594 21.109375 C 89.722656 20.976562 90.007812 20.835938 90.257812 20.625 C 91.296875 19.742188 91.5 19.550781 91.820312 19.398438 C 92.085938 19.277344 92.390625 19.226562 92.660156 19.332031 C 92.558594 19.449219 92.425781 19.535156 92.332031 19.660156 C 92.078125 20.003906 92.421875 20.46875 92.8125 20.375 C 92.984375 20.332031 93.121094 20.191406 93.289062 20.128906 C 93.464844 20.066406 93.660156 20.09375 93.832031 20.171875 C 94.007812 20.25 94.15625 20.371094 94.304688 20.496094 C 94.199219 19.917969 93.894531 19.398438 93.402344 19.117188 C 93.066406 18.925781 92.597656 18.804688 92.21875 18.863281 C 91.761719 18.929688 91.386719 19.261719 91.039062 19.5625 C 90.90625 19.679688 90.769531 19.796875 90.667969 19.945312 C 90.738281 19.8125 90.808594 19.671875 90.851562 19.527344 C 90.980469 19.078125 90.863281 18.550781 90.628906 18.167969 C 90.269531 17.582031 89.539062 17.203125 88.902344 17.414062 C 88.382812 17.582031 87.960938 18.082031 88.007812 18.6875 C 88.03125 19 88.152344 19.292969 88.265625 19.582031 C 88.3125 19.515625 88.316406 19.429688 88.332031 19.347656 C 88.367188 19.140625 88.511719 18.96875 88.6875 18.882812 C 88.910156 18.777344 89.144531 18.902344 89.375 18.8125 C 89.523438 18.753906 89.652344 18.597656 89.628906 18.417969 C 89.609375 18.300781 89.53125 18.199219 89.429688 18.152344 C 89.378906 18.128906 89.324219 18.117188 89.277344 18.085938 C 89.160156 18.007812 89.171875 17.851562 89.371094 17.839844 C 90.226562 17.796875 90.863281 18.992188 90.398438 19.761719 C 90.328125 19.878906 90.234375 19.980469 90.140625 20.078125 C 89.761719 20.476562 89.375 20.761719 88.835938 20.800781 C 88.445312 20.828125 87.949219 20.765625 87.617188 20.527344 C 87.289062 20.296875 87.039062 19.945312 86.898438 19.550781 C 86.78125 19.226562 86.6875 18.808594 86.734375 18.464844 C 86.796875 17.984375 86.960938 17.589844 87.199219 17.273438 C 87.25 17.332031 87.300781 17.390625 87.363281 17.425781 C 87.511719 17.496094 87.78125 17.40625 87.75 17.210938 C 87.730469 17.082031 87.675781 16.964844 87.609375 16.851562 C 88.359375 16.265625 89.445312 16.15625 90.386719 16.4375 C 91.117188 16.65625 91.742188 17.109375 92.363281 17.5625 C 94.644531 19.222656 94.789062 19.78125 96.277344 20.691406 C 96.226562 20.777344 96.199219 20.867188 96.21875 20.957031 C 96.3125 21.40625 96.597656 21.351562 96.925781 21.050781 C 99.269531 22.183594 100.863281 21.339844 102.957031 19.714844 C 103.339844 19.417969 103.726562 19.128906 104.097656 18.8125 C 104.269531 18.667969 104.425781 18.53125 104.574219 18.40625 L 104.574219 17.761719 C 102.488281 19.347656 100.339844 21.074219 99.152344 21.035156 " fill-opacity="1" fill-rule="nonzero"/></g></svg>