<svg width="134" height="30" xmlns="http://www.w3.org/2000/svg"><path d="M42.65 11.925A1.805 1.805 0 0040.875 13c-.3-.725-.95-1.075-1.725-1.075a1.736 1.736 0 00-1.625.975H37.5v-.825h-1.65v6h1.725v-3c0-.775.15-1.525 1.025-1.525.8 0 .775.9.775 1.35v3.175H41.1v-3.15c0-.75.25-1.35 1.05-1.35.575 0 .75.475.75 1.025v3.5h1.725v-3.55c0-1.475-.45-2.625-1.975-2.625zm7.3 3.15c0 .775-.15 1.525-1.025 1.525-.875 0-.9-.9-.9-1.575v-2.95H46.3V15.4c0 1.6.325 2.85 2.075 2.85A1.736 1.736 0 0050 17.275h.025v.825h1.65v-6H49.95v2.975zm4.95-1.225c0-.35.35-.5.625-.5.4 0 .775.175 1 .5l1.05-1.125c-.525-.6-1.325-.8-2.075-.8-1.175 0-2.35.625-2.35 2.025 0 2.3 2.9 1.475 2.9 2.425 0 .325-.4.425-.775.425-.5 0-.95-.25-1.225-.65L53 17.4c.55.6 1.425.825 2.2.825 1.2 0 2.575-.45 2.575-1.975.025-2.275-2.875-1.525-2.875-2.4zm9.3-4.525h-2.35L60.7 11.1h1.525L64.2 9.325zm-2.125 2.6c-1.725 0-3.1 1.225-3.1 3.15 0 1.925 1.375 3.15 3.1 3.15.925 0 1.8-.45 2.35-1.2l-1.2-.95c-.25.45-.725.725-1.225.725-.675 0-1.15-.45-1.3-1.175h4v-.575c0-1.875-1-3.125-2.625-3.125zM60.7 14.4c.025-.65.575-1.15 1.225-1.15h.05c.6.025 1.05.55 1.025 1.125h-2.3v.025zm8.45-2.475c-1.725 0-3.1 1.225-3.1 3.15 0 1.925 1.375 3.15 3.1 3.15.925 0 1.8-.45 2.35-1.2l-1.2-.95c-.25.45-.725.725-1.225.725-.675 0-1.15-.45-1.3-1.175h4v-.575c0-1.875-1.025-3.125-2.625-3.125zM67.775 14.4c.025-.65.575-1.15 1.225-1.15h.05c.6.025 1.05.55 1 1.125h-2.275v.025zm13.5-1.675c-.425-.575-1.075-.8-1.8-.8-1.575 0-2.55 1.525-2.55 3.2 0 1.825 1.1 3.1 2.75 3.1a2.18 2.18 0 001.725-.95h.025v.8h1.6V8.75H81.3v3.975h-.025zm-1.25 3.875c-.875 0-1.375-.625-1.375-1.525 0-.9.525-1.525 1.375-1.525.875 0 1.375.625 1.375 1.525.025.925-.5 1.525-1.375 1.525zm7.75-4.675c-1.725 0-3.1 1.225-3.1 3.15 0 1.925 1.375 3.15 3.1 3.15.925 0 1.8-.45 2.35-1.2l-1.2-.95c-.25.45-.725.725-1.225.725-.675 0-1.15-.45-1.3-1.175h4v-.575c0-1.875-1.025-3.125-2.625-3.125zM86.4 14.4c.025-.65.575-1.15 1.225-1.15h.05c.6.025 1.05.55 1 1.125H86.4v.025zm9.65 3.7h1.8v-3.425h3.4V12.9h-3.4v-1.775h3.675V9.35h-5.45v8.75h-.025zm8.75-5.05l-.025-.975h-1.725v6h1.725v-2.5c0-1.2.15-2.025 1.475-2.025.25 0 .5.05.725.125V12a1.5 1.5 0 00-.575-.05c-.75-.025-1.225.375-1.6 1.1zm5.775-1.125a3.317 3.317 0 00-2.45.975l.925 1.025c.325-.45.85-.7 1.4-.725h.05c.575 0 1.05.5 1.05 1.075-1.45 0-3.775.025-3.775 2.125 0 1.2.95 1.85 2 1.85.7.05 1.4-.3 1.775-.9h.025v.75h1.6v-3.05c-.05-2.025-.6-3.125-2.6-3.125zm.95 3.925c0 .75-.625 1.125-1.3 1.125-.375 0-.825-.2-.825-.65 0-.825 1.175-.875 1.7-.875h.425v.4zm6.725-3.925a1.736 1.736 0 00-1.625.975h-.025v-.825h-1.65v6h1.725v-3c0-.775.125-1.525 1.025-1.525.875 0 .9.9.9 1.575v2.95h1.725v-3.3c0-1.6-.325-2.85-2.075-2.85zm6.625 1.65c.35 0 .65.175.85.45l1.15-1.275a2.714 2.714 0 00-2-.8c-1.725 0-3.1 1.225-3.1 3.15 0 1.925 1.375 3.15 3.1 3.15a2.714 2.714 0 002-.8l-1.15-1.275c-.2.275-.5.45-.85.45-.875 0-1.375-.625-1.375-1.525 0-.925.5-1.525 1.375-1.525zM133.5 15.1c0-1.925-1-3.15-2.625-3.15-1.725 0-3.1 1.225-3.1 3.15 0 1.925 1.375 3.15 3.1 3.15.925 0 1.8-.45 2.35-1.2l-1.2-.95c-.25.45-.725.725-1.225.725-.675 0-1.15-.45-1.3-1.175h4v-.55zm-4-.7c.025-.65.575-1.15 1.225-1.15h.05c.6.025 1.05.55 1 1.125H129.5v.025zM0 30h30V0H0v30zm19.025-6H11v-1.425h8V24h.025zm4-17.95h2.725v5.975h-1.425V7.45h-1.3v-1.4zm2.725 8.225v1.5h-1.425v-1.5h1.425zm-2.725 8.3h1.3v-4.55h1.425V24h-2.725v-1.425zM11 6.05h8v1.425h-8V6.05zm1.525 5.975l.05.925c.275-.65.925-1.05 1.625-1.025a1.54 1.54 0 011.525 1.025c.35-.675.875-1.025 1.575-1.025 1.225 0 1.7.95 1.7 2.15V18.1h-1.775v-3.9c0-.45-.1-.95-.65-.95-.5 0-.725.6-.725 1.05v3.775h-1.775V14.2c0-.45-.1-.95-.65-.95-.525 0-.725.6-.725 1.05v3.775h-1.775V13.3c0-.425 0-.85-.025-1.275h1.625zM7 24H4.3v-5.975h1.4v4.55H7V24zm-2.7-8.225v-1.5h1.4v1.5H4.3zm0-9.725H7v1.425H5.7v4.55H4.3V6.05z" fill="#FFF"/></svg>