<svg width="84" height="22" xmlns="http://www.w3.org/2000/svg"><path d="M33.92 4.189h-5.153v13.622h3.12v-4.28h2.049c2.682 0 4.761-2.079 4.761-4.67 0-2.593-2.08-4.672-4.776-4.672zm0 6.42h-2.049V7.111h2.05c.964 0 1.657.754 1.657 1.748 0 .995-.693 1.748-1.657 1.748zm33.272-6.42h3.12v13.622h-3.12V4.189zM63.907 8.86a4.656 4.656 0 00-4.641-4.671h-5.471v13.622h3.119v-4.28h1.582l2.456 4.28h3.345l-2.863-4.927c1.509-.709 2.473-2.351 2.473-4.024zm-4.656 1.96h-2.336V7.111h2.336c.859 0 1.552.799 1.552 1.854 0 1.055-.693 1.853-1.552 1.853zM43.278 4.188L38.652 17.81h3.406l.753-2.396c1.603.402 3.28.402 4.882 0l.769 2.396h3.405L47.241 4.189h-3.963zm1.974 8.8a6.303 6.303 0 01-1.612-.196l1.612-5.048 1.611 5.048a7.05 7.05 0 01-1.61.196zm34.477-3.15c-2.11-.632-2.969-.994-2.969-1.853 0-.648.618-1.024 1.462-1.024 1.356 0 1.914.723 2.38 1.401l2.593-1.371c-.437-.86-1.703-3.074-4.973-3.074-2.305 0-4.566 1.461-4.566 4.144 0 3.21 3.06 3.812 4.009 4.143.949.332 2.817.573 2.817 1.733 0 .814-.844 1.115-1.944 1.115-1.22 0-2.2-.678-2.802-1.717l-2.654 1.386c.196.573 1.748 3.36 5.44 3.36 2.908 0 5.063-1.537 5.063-4.189.001-2.094-1.144-3.255-3.856-4.053zm-55.844 3.225c-.09 0-.15.076-.256.287-2.17 4.761-6.178 7.037-10.412 7.067-8.454.06-10.443-6.886-10.488-7.082l4.31.798c.015.045 1.672 3.843 6.027 3.843 4.61 0 7.805-4.596 7.805-9.343 0-4.28-1.808-6.72-4.415-8.634L4.718 5.425a.119.119 0 00.03.226c6.495 1.507 7.61 6.178 7.293 8.83-.045.392.211.331.467-.407.89-2.637.257-6.464-3.27-8.62 0 0 6.525-3.27 6.525-3.254.784.603 3.345 2.336 3.345 6.45 0 4.113-2.38 7.85-6.042 7.85-3.632 0-4.897-3.707-4.928-3.767l-7.76-1.688a.185.185 0 00-.227.196C.829 17.163 5.56 22 12.43 22c5.696 0 9.569-3.134 11.211-7.55.379-1.024.364-1.386.243-1.386z" fill="#FFF"/></svg>